<svg width="19" height="19" viewBox="0 0 19 19" fill="none" xmlns="http://www.w3.org/2000/svg">
<path d="M8.60387 2.79211H2.68975C2.2416 2.79211 1.81181 2.97014 1.49492 3.28703C1.17803 3.60392 1 4.03371 1 4.48186V16.3101C1 16.7583 1.17803 17.1881 1.49492 17.5049C1.81181 17.8218 2.2416 17.9999 2.68975 17.9999H14.518C14.9661 17.9999 15.3959 17.8218 15.7128 17.5049C16.0297 17.1881 16.2077 16.7583 16.2077 16.3101V10.396" stroke="#A5A5A5" stroke-linecap="round" stroke-linejoin="round"/>
<path d="M14.9405 1.52494C15.2766 1.18883 15.7325 1 16.2078 1C16.6832 1 17.139 1.18883 17.4751 1.52494C17.8113 1.86105 18.0001 2.31692 18.0001 2.79225C18.0001 3.26758 17.8113 3.72345 17.4751 4.05956L9.44884 12.0859L6.06934 12.9307L6.91421 9.55125L14.9405 1.52494Z" stroke="#A5A5A5" stroke-linecap="round" stroke-linejoin="round"/>
</svg>
