<svg width="71" height="27" viewBox="0 0 71 27" fill="none" xmlns="http://www.w3.org/2000/svg">
<path fill-rule="evenodd" clip-rule="evenodd" d="M10 0C4.47715 0 0 4.47715 0 10V17C0 22.5228 4.47715 27 10 27H61C66.5229 27 71 22.5228 71 17V10C71 4.47715 66.5229 0 61 0H10ZM11.563 17V9.278H9.682V17H11.563ZM22.4311 17V9.278H20.2201L18.0751 14.624L15.9081 9.278H13.6861V17H15.5671V12.358L17.3051 17H18.8231L20.5501 12.369V17H22.4311ZM29.5708 9.762C28.9621 9.43933 28.2508 9.278 27.4368 9.278H24.5438V17H27.4368C28.2435 17 28.9511 16.8387 29.5598 16.516C30.1758 16.1933 30.6488 15.7387 30.9788 15.152C31.3161 14.5653 31.4848 13.8943 31.4848 13.139C31.4848 12.3763 31.3161 11.7053 30.9788 11.126C30.6488 10.5393 30.1795 10.0847 29.5708 9.762ZM28.9768 14.789C28.5808 15.1777 28.0271 15.372 27.3158 15.372H26.4248V10.884H27.3158C28.0271 10.884 28.5808 11.082 28.9768 11.478C29.3728 11.874 29.5708 12.4277 29.5708 13.139C29.5708 13.8503 29.3728 14.4003 28.9768 14.789ZM39.049 13.711C38.7777 13.359 38.4183 13.1353 37.971 13.04C38.367 12.9227 38.6823 12.7137 38.917 12.413C39.159 12.1123 39.28 11.7347 39.28 11.28C39.28 10.664 39.0563 10.1763 38.609 9.817C38.169 9.45767 37.5567 9.278 36.772 9.278H33.296V17H36.893C37.6997 17 38.3267 16.813 38.774 16.439C39.2287 16.0577 39.456 15.5443 39.456 14.899C39.456 14.4517 39.3203 14.0557 39.049 13.711ZM36.409 12.402H35.177V10.785H36.409C36.717 10.785 36.9517 10.8547 37.113 10.994C37.2817 11.1333 37.366 11.335 37.366 11.599C37.366 11.863 37.2817 12.0647 37.113 12.204C36.9517 12.336 36.717 12.402 36.409 12.402ZM37.289 15.273C37.1203 15.4123 36.8783 15.482 36.563 15.482H35.177V13.777H36.541C36.8563 13.777 37.102 13.854 37.278 14.008C37.4613 14.162 37.553 14.3747 37.553 14.646C37.553 14.9173 37.465 15.1263 37.289 15.273ZM44.497 10.961C44.497 11.7457 44.8417 12.3213 45.531 12.688C45.1423 12.8713 44.8417 13.1317 44.629 13.469C44.4163 13.799 44.31 14.1913 44.31 14.646C44.31 15.1667 44.442 15.6177 44.706 15.999C44.97 16.373 45.3257 16.659 45.773 16.857C46.2277 17.055 46.73 17.154 47.28 17.154C47.83 17.154 48.3287 17.055 48.776 16.857C49.2307 16.659 49.59 16.373 49.854 15.999C50.118 15.6177 50.25 15.1667 50.25 14.646C50.25 14.1987 50.1437 13.81 49.931 13.48C49.7183 13.1427 49.414 12.8787 49.018 12.688C49.3333 12.5193 49.5827 12.2883 49.766 11.995C49.9567 11.7017 50.052 11.357 50.052 10.961C50.052 10.565 49.9493 10.2057 49.744 9.883C49.5387 9.553 49.227 9.29267 48.809 9.102C48.3983 8.904 47.8887 8.805 47.28 8.805C46.6713 8.805 46.158 8.904 45.74 9.102C45.322 9.29267 45.0103 9.553 44.805 9.883C44.5997 10.2057 44.497 10.565 44.497 10.961ZM47.962 10.554C48.138 10.7153 48.226 10.9463 48.226 11.247C48.226 11.533 48.138 11.7603 47.962 11.929C47.786 12.0977 47.5587 12.182 47.28 12.182C47.0013 12.182 46.774 12.1013 46.598 11.94C46.422 11.7713 46.334 11.544 46.334 11.258C46.334 10.9573 46.4183 10.7227 46.587 10.554C46.763 10.3853 46.994 10.301 47.28 10.301C47.566 10.301 47.7933 10.3853 47.962 10.554ZM46.444 13.788C46.6567 13.5973 46.9353 13.502 47.28 13.502C47.6173 13.502 47.8887 13.5973 48.094 13.788C48.3067 13.9787 48.413 14.2353 48.413 14.558C48.413 14.866 48.3103 15.119 48.105 15.317C47.907 15.515 47.632 15.614 47.28 15.614C46.928 15.614 46.6457 15.515 46.433 15.317C46.2277 15.119 46.125 14.866 46.125 14.558C46.125 14.228 46.2313 13.9713 46.444 13.788ZM52.3568 16.802C52.5695 16.9927 52.8408 17.088 53.1708 17.088C53.4935 17.088 53.7575 16.9927 53.9628 16.802C54.1755 16.604 54.2818 16.362 54.2818 16.076C54.2818 15.7827 54.1755 15.537 53.9628 15.339C53.7575 15.141 53.4935 15.042 53.1708 15.042C52.8408 15.042 52.5695 15.141 52.3568 15.339C52.1515 15.537 52.0488 15.7827 52.0488 16.076C52.0488 16.362 52.1515 16.604 52.3568 16.802ZM58.3333 17L61.0943 10.378V8.981H55.7813V10.587H59.2023L56.4083 17H58.3333Z" fill="url(#paint0_linear_121_651)"/>
<defs>
<linearGradient id="paint0_linear_121_651" x1="71" y1="-2.7821e-06" x2="-4.44579e-06" y2="27" gradientUnits="userSpaceOnUse">
<stop stop-color="#FFBB00" stop-opacity="0.6"/>
<stop offset="1" stop-color="#FFBB00"/>
</linearGradient>
</defs>
</svg>
