<svg width="38" height="16" viewBox="0 0 38 16" fill="none" xmlns="http://www.w3.org/2000/svg">
<path d="M3.51095 8.50308C3.51095 8.50604 3.51095 8.50866 3.51095 8.51127C3.79149 9.00599 3.93831 9.56525 3.93699 10.134V10.762C5.13475 10.2936 6.53568 10.0465 7.99989 10.0465C9.9411 10.0465 11.3666 10.4696 12.1171 10.7602L12.1223 10.1336C12.1223 9.45673 12.2819 8.85135 12.5614 8.36054L13.1939 4.19309C13.3573 3.12408 13.0749 2.10157 12.3976 1.31348C11.6795 0.479267 10.5919 0 9.41383 0H6.6462C5.46591 0 4.37642 0.479267 3.66088 1.31459C2.98445 2.10307 2.70165 3.12558 2.86501 4.19386L3.51095 8.50308Z" fill="white"/>
<path d="M14.7185 7.81396C13.5029 7.81396 12.867 8.98121 12.867 10.1336V10.8242C12.867 11.0813 12.7465 11.3224 12.5515 11.4523C12.3831 11.5656 12.1688 11.5861 11.9818 11.507C11.3306 11.2394 9.94869 10.7907 8.00044 10.7907C6.57422 10.7907 5.21794 11.0385 4.07822 11.507C3.89124 11.5864 3.67678 11.566 3.50818 11.4526C3.31357 11.3224 3.19266 11.0805 3.19266 10.8246V10.1336C3.19266 8.83128 2.29964 7.81396 1.15807 7.81396C0.529605 7.81396 0.186523 8.55814 0.186523 8.93767C0.186523 9.39908 0.510628 9.91703 0.909139 10.0912C0.949709 10.109 0.99436 10.1284 1.04198 10.1455C1.40365 10.2899 2.07638 10.5581 2.07638 11.3291V12.8249C2.07638 13.3831 2.19656 14.611 3.20086 14.8421C3.19734 14.8555 3.19458 14.8692 3.19266 14.883V15.6271C3.19266 15.8326 3.35927 15.9992 3.56477 15.9992H3.93687C4.14237 15.9992 4.30897 15.8326 4.30897 15.6271V14.8837H11.7508V15.6279C11.7508 15.8334 11.9174 16 12.1229 16H12.495C12.7005 16 12.8671 15.8334 12.8671 15.6279V14.8837C12.8671 14.8733 12.8619 14.8644 12.8612 14.8543C13.7776 14.6795 13.9834 13.6796 13.9834 12.8261V11.3302C13.9834 10.5585 14.6532 10.2903 15.0137 10.1459C15.0602 10.1273 15.1042 10.1086 15.1443 10.0919C15.5205 9.92631 15.8141 9.41879 15.8141 8.93841C15.8144 8.55294 15.3515 7.81396 14.7185 7.81396Z" fill="white"/>
<path d="M25.511 8.50308C25.511 8.50604 25.511 8.50866 25.511 8.51127C25.7915 9.00599 25.9383 9.56525 25.937 10.134V10.762C27.1348 10.2936 28.5357 10.0465 29.9999 10.0465C31.9411 10.0465 33.3666 10.4696 34.1171 10.7602L34.1223 10.1336C34.1223 9.45673 34.2819 8.85135 34.5614 8.36054L35.1939 4.19309C35.3573 3.12408 35.0749 2.10157 34.3976 1.31348C33.6795 0.479267 32.5919 0 31.4138 0H28.6462C27.4659 0 26.3764 0.479267 25.6609 1.31459C24.9845 2.10307 24.7017 3.12558 24.865 4.19386L25.511 8.50308Z" fill="white"/>
<path d="M36.7185 7.81396C35.5029 7.81396 34.867 8.98121 34.867 10.1336V10.8242C34.867 11.0813 34.7465 11.3224 34.5515 11.4523C34.3831 11.5656 34.1688 11.5861 33.9818 11.507C33.3306 11.2394 31.9487 10.7907 30.0004 10.7907C28.5742 10.7907 27.2179 11.0385 26.0782 11.507C25.8912 11.5864 25.6768 11.566 25.5082 11.4526C25.3136 11.3224 25.1927 11.0805 25.1927 10.8246V10.1336C25.1927 8.83128 24.2996 7.81396 23.1581 7.81396C22.5296 7.81396 22.1865 8.55814 22.1865 8.93767C22.1865 9.39908 22.5106 9.91703 22.9091 10.0912C22.9497 10.109 22.9944 10.1284 23.042 10.1455C23.4037 10.2899 24.0764 10.5581 24.0764 11.3291V12.8249C24.0764 13.3831 24.1966 14.611 25.2009 14.8421C25.1973 14.8555 25.1946 14.8692 25.1927 14.883V15.6271C25.1927 15.8326 25.3593 15.9992 25.5648 15.9992H25.9369C26.1424 15.9992 26.309 15.8326 26.309 15.6271V14.8837H33.7508V15.6279C33.7508 15.8334 33.9174 16 34.1229 16H34.495C34.7005 16 34.8671 15.8334 34.8671 15.6279V14.8837C34.8671 14.8733 34.8619 14.8644 34.8612 14.8543C35.7776 14.6795 35.9834 13.6796 35.9834 12.8261V11.3302C35.9834 10.5585 36.6532 10.2903 37.0137 10.1459C37.0602 10.1273 37.1042 10.1086 37.1443 10.0919C37.5205 9.92631 37.8141 9.41879 37.8141 8.93841C37.8144 8.55294 37.3515 7.81396 36.7185 7.81396Z" fill="white"/>
</svg>
