<svg width="32" height="32" viewBox="0 0 32 32" fill="none" xmlns="http://www.w3.org/2000/svg">
<path opacity="0.4" d="M15.8614 2.64322C23.151 2.64322 29.0792 8.57273 29.0792 15.861C29.0792 23.1493 23.151 29.0789 15.8614 29.0789C8.57307 29.0789 2.64355 23.1493 2.64355 15.861C2.64355 8.57273 8.57307 2.64322 15.8614 2.64322" fill="white"/>
<path d="M13.9549 10.2822C14.2073 10.2822 14.4611 10.3787 14.6541 10.5716L19.2631 15.1582C19.4495 15.3446 19.5539 15.5971 19.5539 15.8614C19.5539 16.1244 19.4495 16.3769 19.2631 16.5633L14.6541 21.1525C14.2668 21.5385 13.6403 21.5385 13.253 21.1499C12.867 20.7613 12.8684 20.1334 13.2556 19.7475L17.1589 15.8614L13.2556 11.9754C12.8684 11.5894 12.867 10.9629 13.253 10.5743C13.446 10.3787 13.7011 10.2822 13.9549 10.2822" fill="white"/>
</svg>
