<svg width="32" height="33" viewBox="0 0 32 33" fill="none" xmlns="http://www.w3.org/2000/svg">
<path opacity="0.4" d="M15.9753 29.7184C8.68567 29.7184 2.75747 23.7888 2.75747 16.5005C2.75747 9.21223 8.68567 3.28271 15.9753 3.28271C23.2636 3.28271 29.1931 9.21223 29.1931 16.5005C29.1931 23.7888 23.2636 29.7184 15.9753 29.7184" fill="white"/>
<path d="M17.8818 22.0794C17.6293 22.0794 17.3756 21.9829 17.1826 21.7899L12.5735 17.2033C12.3872 17.017 12.2827 16.7645 12.2827 16.5002C12.2827 16.2371 12.3872 15.9847 12.5735 15.7983L17.1826 11.2091C17.5699 10.8231 18.1964 10.8231 18.5837 11.2117C18.9696 11.6003 18.9683 12.2282 18.581 12.6141L14.6778 16.5002L18.581 20.3862C18.9683 20.7722 18.9696 21.3987 18.5837 21.7873C18.3907 21.9829 18.1356 22.0794 17.8818 22.0794" fill="white"/>
</svg>
