<svg width="35" height="35" viewBox="0 0 35 35" fill="none" xmlns="http://www.w3.org/2000/svg">
<path d="M20.1974 6.19836V9.72753" stroke="white" stroke-width="1.5" stroke-linecap="round" stroke-linejoin="round"/>
<path d="M20.1974 25.9001V28.8518" stroke="white" stroke-width="1.5" stroke-linecap="round" stroke-linejoin="round"/>
<path d="M20.1974 20.89V13.8594" stroke="white" stroke-width="1.5" stroke-linecap="round" stroke-linejoin="round"/>
<path fill-rule="evenodd" clip-rule="evenodd" d="M27.2738 29.1667C29.931 29.1667 32.0832 27.0413 32.0832 24.4171V20.6364C30.3249 20.6364 28.9088 19.2379 28.9088 17.5015C28.9088 15.7651 30.3249 14.3652 32.0832 14.3652L32.0817 10.583C32.0817 7.95882 29.9279 5.83337 27.2723 5.83337H7.72742C5.07176 5.83337 2.91802 7.95882 2.91802 10.583L2.9165 14.4884C4.67478 14.4884 6.09083 15.7651 6.09083 17.5015C6.09083 19.2379 4.67478 20.6364 2.9165 20.6364V24.4171C2.9165 27.0413 5.06872 29.1667 7.7259 29.1667H27.2738Z" stroke="white" stroke-width="1.5" stroke-linecap="round" stroke-linejoin="round"/>
</svg>
