<svg width="35" height="35" viewBox="0 0 35 35" fill="none" xmlns="http://www.w3.org/2000/svg">
<path d="M20.1974 6.19824V9.72741" stroke="white" stroke-width="1.5" stroke-linecap="round" stroke-linejoin="round"/>
<path d="M20.1974 25.9001V28.8518" stroke="white" stroke-width="1.5" stroke-linecap="round" stroke-linejoin="round"/>
<path d="M20.1974 20.89V13.8594" stroke="white" stroke-width="1.5" stroke-linecap="round" stroke-linejoin="round"/>
<path fill-rule="evenodd" clip-rule="evenodd" d="M27.2738 29.1666C29.931 29.1666 32.0832 27.0411 32.0832 24.417V20.6363C30.3249 20.6363 28.9088 19.2378 28.9088 17.5014C28.9088 15.765 30.3249 14.3651 32.0832 14.3651L32.0817 10.5828C32.0817 7.9587 29.9279 5.83325 27.2723 5.83325H7.72742C5.07176 5.83325 2.91802 7.9587 2.91802 10.5828L2.9165 14.4882C4.67478 14.4882 6.09083 15.765 6.09083 17.5014C6.09083 19.2378 4.67478 20.6363 2.9165 20.6363V24.417C2.9165 27.0411 5.06872 29.1666 7.7259 29.1666H27.2738Z" stroke="white" stroke-width="1.5" stroke-linecap="round" stroke-linejoin="round"/>
</svg>
