<svg width="35" height="35" viewBox="0 0 35 35" fill="none" xmlns="http://www.w3.org/2000/svg">
<path d="M20.1977 6.19824V9.72741" stroke="#36CC60" stroke-width="1.5" stroke-linecap="round" stroke-linejoin="round"/>
<path d="M20.1977 25.9001V28.8518" stroke="#36CC60" stroke-width="1.5" stroke-linecap="round" stroke-linejoin="round"/>
<path d="M20.1977 20.89V13.8594" stroke="#36CC60" stroke-width="1.5" stroke-linecap="round" stroke-linejoin="round"/>
<path fill-rule="evenodd" clip-rule="evenodd" d="M27.274 29.1666C29.9312 29.1666 32.0834 27.0411 32.0834 24.417V20.6363C30.3251 20.6363 28.9091 19.2378 28.9091 17.5014C28.9091 15.765 30.3251 14.3651 32.0834 14.3651L32.0819 10.5828C32.0819 7.9587 29.9282 5.83325 27.2725 5.83325H7.72767C5.072 5.83325 2.91827 7.9587 2.91827 10.5828L2.91675 14.4882C4.67502 14.4882 6.09107 15.765 6.09107 17.5014C6.09107 19.2378 4.67502 20.6363 2.91675 20.6363V24.417C2.91675 27.0411 5.06896 29.1666 7.72615 29.1666H27.274Z" stroke="#36CC60" stroke-width="1.5" stroke-linecap="round" stroke-linejoin="round"/>
</svg>
