<svg width="33" height="33" viewBox="0 0 33 33" fill="none" xmlns="http://www.w3.org/2000/svg">
<path opacity="0.4" d="M16.7129 3.28225C24.0026 3.28225 29.9308 9.21177 29.9308 16.5001C29.9308 23.7884 24.0026 29.7179 16.7129 29.7179C9.42463 29.7179 3.49512 23.7884 3.49512 16.5001C3.49512 9.21177 9.42463 3.28225 16.7129 3.28225" fill="white"/>
<path d="M14.8064 10.9212C15.0589 10.9212 15.3127 11.0177 15.5057 11.2107L20.1147 15.7973C20.3011 15.9836 20.4055 16.2361 20.4055 16.5005C20.4055 16.7635 20.3011 17.0159 20.1147 17.2023L15.5057 21.7915C15.1184 22.1775 14.4918 22.1775 14.1046 21.7889C13.7186 21.4003 13.7199 20.7725 14.1072 20.3865L18.0104 16.5005L14.1072 12.6144C13.7199 12.2285 13.7186 11.6019 14.1046 11.2133C14.2975 11.0177 14.5526 10.9212 14.8064 10.9212" fill="white"/>
</svg>
