<svg width="35" height="35" viewBox="0 0 35 35" fill="none" xmlns="http://www.w3.org/2000/svg">
<path d="M20.1977 6.19836V9.72753" stroke="white" stroke-width="1.5" stroke-linecap="round" stroke-linejoin="round"/>
<path d="M20.1977 25.9001V28.8518" stroke="white" stroke-width="1.5" stroke-linecap="round" stroke-linejoin="round"/>
<path d="M20.1977 20.89V13.8594" stroke="white" stroke-width="1.5" stroke-linecap="round" stroke-linejoin="round"/>
<path fill-rule="evenodd" clip-rule="evenodd" d="M27.274 29.1667C29.9312 29.1667 32.0834 27.0413 32.0834 24.4171V20.6364C30.3251 20.6364 28.9091 19.2379 28.9091 17.5015C28.9091 15.7651 30.3251 14.3652 32.0834 14.3652L32.0819 10.583C32.0819 7.95882 29.9282 5.83337 27.2725 5.83337H7.72767C5.072 5.83337 2.91827 7.95882 2.91827 10.583L2.91675 14.4884C4.67502 14.4884 6.09107 15.7651 6.09107 17.5015C6.09107 19.2379 4.67502 20.6364 2.91675 20.6364V24.4171C2.91675 27.0413 5.06896 29.1667 7.72615 29.1667H27.274Z" stroke="white" stroke-width="1.5" stroke-linecap="round" stroke-linejoin="round"/>
</svg>
