<svg width="32" height="32" viewBox="0 0 32 32" fill="none" xmlns="http://www.w3.org/2000/svg">
<path opacity="0.4" d="M15.8614 2.64334C23.151 2.64334 29.0792 8.57285 29.0792 15.8612C29.0792 23.1495 23.151 29.079 15.8614 29.079C8.57307 29.079 2.64355 23.1495 2.64355 15.8612C2.64355 8.57285 8.57307 2.64334 15.8614 2.64334Z" fill="white"/>
<path d="M13.9544 10.2823C14.2068 10.2823 14.4606 10.3788 14.6536 10.5718L19.2627 15.1583C19.449 15.3447 19.5534 15.5972 19.5534 15.8615C19.5534 16.1246 19.449 16.377 19.2627 16.5634L14.6536 21.1526C14.2663 21.5386 13.6398 21.5386 13.2525 21.15C12.8666 20.7614 12.8679 20.1335 13.2552 19.7476L17.1584 15.8615L13.2552 11.9755C12.8679 11.5895 12.8666 10.963 13.2525 10.5744C13.4455 10.3788 13.7006 10.2823 13.9544 10.2823Z" fill="white"/>
</svg>
