<svg width="32" height="32" viewBox="0 0 32 32" fill="none" xmlns="http://www.w3.org/2000/svg">
<path opacity="0.4" d="M15.8615 29.0794C8.5719 29.0794 2.6437 23.1499 2.6437 15.8616C2.6437 8.57331 8.5719 2.6438 15.8615 2.6438C23.1498 2.6438 29.0793 8.57331 29.0793 15.8616C29.0793 23.1499 23.1498 29.0794 15.8615 29.0794" fill="white"/>
<path d="M17.768 21.4405C17.5156 21.4405 17.2618 21.344 17.0688 21.151L12.4598 16.5644C12.2734 16.3781 12.169 16.1256 12.169 15.8612C12.169 15.5982 12.2734 15.3457 12.4598 15.1594L17.0688 10.5701C17.4561 10.1842 18.0826 10.1842 18.4699 10.5728C18.8559 10.9614 18.8545 11.5892 18.4673 11.9752L14.564 15.8612L18.4673 19.7473C18.8545 20.1332 18.8559 20.7598 18.4699 21.1484C18.2769 21.344 18.0218 21.4405 17.768 21.4405" fill="white"/>
</svg>
