<svg width="148" height="16" viewBox="0 0 148 16" fill="none" xmlns="http://www.w3.org/2000/svg">
<path d="M69.511 8.50308C69.511 8.50604 69.511 8.50866 69.511 8.51127C69.7915 9.00599 69.9383 9.56525 69.937 10.134V10.762C71.1348 10.2936 72.5357 10.0465 73.9999 10.0465C75.9411 10.0465 77.3666 10.4696 78.1171 10.7602L78.1223 10.1336C78.1223 9.45673 78.2819 8.85135 78.5614 8.36054L79.1939 4.19309C79.3573 3.12408 79.0749 2.10157 78.3976 1.31348C77.6795 0.479267 76.5919 0 75.4138 0H72.6462C71.4659 0 70.3764 0.479267 69.6609 1.31459C68.9845 2.10307 68.7017 3.12558 68.865 4.19386L69.511 8.50308Z" fill="#36CC60"/>
<path d="M80.7185 7.81396C79.5029 7.81396 78.867 8.98121 78.867 10.1336V10.8242C78.867 11.0813 78.7465 11.3224 78.5515 11.4523C78.383 11.5656 78.1688 11.5861 77.9818 11.507C77.3306 11.2394 75.9487 10.7907 74.0004 10.7907C72.5742 10.7907 71.2179 11.0385 70.0782 11.507C69.8912 11.5864 69.6768 11.566 69.5082 11.4526C69.3136 11.3224 69.1927 11.0805 69.1927 10.8246V10.1336C69.1927 8.83128 68.2996 7.81396 67.1581 7.81396C66.5296 7.81396 66.1865 8.55814 66.1865 8.93767C66.1865 9.39908 66.5106 9.91703 66.9091 10.0912C66.9497 10.109 66.9944 10.1284 67.042 10.1455C67.4037 10.2899 68.0764 10.5581 68.0764 11.3291V12.8249C68.0764 13.3831 68.1966 14.611 69.2009 14.8421C69.1973 14.8555 69.1946 14.8692 69.1927 14.883V15.6271C69.1927 15.8326 69.3593 15.9992 69.5648 15.9992H69.9369C70.1424 15.9992 70.309 15.8326 70.309 15.6271V14.8837H77.7508V15.6279C77.7508 15.8334 77.9174 16 78.1229 16H78.495C78.7005 16 78.8671 15.8334 78.8671 15.6279V14.8837C78.8671 14.8733 78.8619 14.8644 78.8612 14.8543C79.7776 14.6795 79.9834 13.6796 79.9834 12.8261V11.3302C79.9834 10.5585 80.6532 10.2903 81.0137 10.1459C81.0602 10.1273 81.1042 10.1086 81.1443 10.0919C81.5205 9.92631 81.8141 9.41879 81.8141 8.93841C81.8144 8.55294 81.3515 7.81396 80.7185 7.81396Z" fill="#36CC60"/>
<path d="M91.511 8.50308C91.511 8.50604 91.511 8.50866 91.511 8.51127C91.7915 9.00599 91.9383 9.56525 91.937 10.134V10.762C93.1348 10.2936 94.5357 10.0465 95.9999 10.0465C97.9411 10.0465 99.3666 10.4696 100.117 10.7602L100.122 10.1336C100.122 9.45673 100.282 8.85135 100.561 8.36054L101.194 4.19309C101.357 3.12408 101.075 2.10157 100.398 1.31348C99.6795 0.479267 98.5919 0 97.4138 0H94.6462C93.4659 0 92.3764 0.479267 91.6609 1.31459C90.9845 2.10307 90.7017 3.12558 90.865 4.19386L91.511 8.50308Z" fill="#36CC60"/>
<path d="M102.719 7.81396C101.503 7.81396 100.867 8.98121 100.867 10.1336V10.8242C100.867 11.0813 100.746 11.3224 100.552 11.4523C100.383 11.5656 100.169 11.5861 99.9818 11.507C99.3306 11.2394 97.9487 10.7907 96.0004 10.7907C94.5742 10.7907 93.2179 11.0385 92.0782 11.507C91.8912 11.5864 91.6768 11.566 91.5082 11.4526C91.3136 11.3224 91.1927 11.0805 91.1927 10.8246V10.1336C91.1927 8.83128 90.2996 7.81396 89.1581 7.81396C88.5296 7.81396 88.1865 8.55814 88.1865 8.93767C88.1865 9.39908 88.5106 9.91703 88.9091 10.0912C88.9497 10.109 88.9944 10.1284 89.042 10.1455C89.4037 10.2899 90.0764 10.5581 90.0764 11.3291V12.8249C90.0764 13.3831 90.1966 14.611 91.2009 14.8421C91.1973 14.8555 91.1946 14.8692 91.1927 14.883V15.6271C91.1927 15.8326 91.3593 15.9992 91.5648 15.9992H91.9369C92.1424 15.9992 92.309 15.8326 92.309 15.6271V14.8837H99.7508V15.6279C99.7508 15.8334 99.9174 16 100.123 16H100.495C100.701 16 100.867 15.8334 100.867 15.6279V14.8837C100.867 14.8733 100.862 14.8644 100.861 14.8543C101.778 14.6795 101.983 13.6796 101.983 12.8261V11.3302C101.983 10.5585 102.653 10.2903 103.014 10.1459C103.06 10.1273 103.104 10.1086 103.144 10.0919C103.521 9.92631 103.814 9.41879 103.814 8.93841C103.814 8.55294 103.351 7.81396 102.719 7.81396Z" fill="#36CC60"/>
<path d="M113.511 8.50308C113.511 8.50604 113.511 8.50866 113.511 8.51127C113.791 9.00599 113.938 9.56525 113.937 10.134V10.762C115.135 10.2936 116.536 10.0465 118 10.0465C119.941 10.0465 121.367 10.4696 122.117 10.7602L122.122 10.1336C122.122 9.45673 122.282 8.85135 122.561 8.36054L123.194 4.19309C123.357 3.12408 123.075 2.10157 122.398 1.31348C121.679 0.479267 120.592 0 119.414 0H116.646C115.466 0 114.376 0.479267 113.661 1.31459C112.984 2.10307 112.702 3.12558 112.865 4.19386L113.511 8.50308Z" fill="white"/>
<path d="M124.719 7.81396C123.503 7.81396 122.867 8.98121 122.867 10.1336V10.8242C122.867 11.0813 122.746 11.3224 122.552 11.4523C122.383 11.5656 122.169 11.5861 121.982 11.507C121.331 11.2394 119.949 10.7907 118 10.7907C116.574 10.7907 115.218 11.0385 114.078 11.507C113.891 11.5864 113.677 11.566 113.508 11.4526C113.314 11.3224 113.193 11.0805 113.193 10.8246V10.1336C113.193 8.83128 112.3 7.81396 111.158 7.81396C110.53 7.81396 110.187 8.55814 110.187 8.93767C110.187 9.39908 110.511 9.91703 110.909 10.0912C110.95 10.109 110.994 10.1284 111.042 10.1455C111.404 10.2899 112.076 10.5581 112.076 11.3291V12.8249C112.076 13.3831 112.197 14.611 113.201 14.8421C113.197 14.8555 113.195 14.8692 113.193 14.883V15.6271C113.193 15.8326 113.359 15.9992 113.565 15.9992H113.937C114.142 15.9992 114.309 15.8326 114.309 15.6271V14.8837H121.751V15.6279C121.751 15.8334 121.917 16 122.123 16H122.495C122.701 16 122.867 15.8334 122.867 15.6279V14.8837C122.867 14.8733 122.862 14.8644 122.861 14.8543C123.778 14.6795 123.983 13.6796 123.983 12.8261V11.3302C123.983 10.5585 124.653 10.2903 125.014 10.1459C125.06 10.1273 125.104 10.1086 125.144 10.0919C125.521 9.92631 125.814 9.41879 125.814 8.93841C125.814 8.55294 125.351 7.81396 124.719 7.81396Z" fill="white"/>
<path d="M135.511 8.50308C135.511 8.50604 135.511 8.50866 135.511 8.51127C135.791 9.00599 135.938 9.56525 135.937 10.134V10.762C137.135 10.2936 138.536 10.0465 140 10.0465C141.941 10.0465 143.367 10.4696 144.117 10.7602L144.122 10.1336C144.122 9.45673 144.282 8.85135 144.561 8.36054L145.194 4.19309C145.357 3.12408 145.075 2.10157 144.398 1.31348C143.679 0.479267 142.592 0 141.414 0H138.646C137.466 0 136.376 0.479267 135.661 1.31459C134.984 2.10307 134.702 3.12558 134.865 4.19386L135.511 8.50308Z" fill="white"/>
<path d="M146.719 7.81396C145.503 7.81396 144.867 8.98121 144.867 10.1336V10.8242C144.867 11.0813 144.746 11.3224 144.552 11.4523C144.383 11.5656 144.169 11.5861 143.982 11.507C143.331 11.2394 141.949 10.7907 140 10.7907C138.574 10.7907 137.218 11.0385 136.078 11.507C135.891 11.5864 135.677 11.566 135.508 11.4526C135.314 11.3224 135.193 11.0805 135.193 10.8246V10.1336C135.193 8.83128 134.3 7.81396 133.158 7.81396C132.53 7.81396 132.187 8.55814 132.187 8.93767C132.187 9.39908 132.511 9.91703 132.909 10.0912C132.95 10.109 132.994 10.1284 133.042 10.1455C133.404 10.2899 134.076 10.5581 134.076 11.3291V12.8249C134.076 13.3831 134.197 14.611 135.201 14.8421C135.197 14.8555 135.195 14.8692 135.193 14.883V15.6271C135.193 15.8326 135.359 15.9992 135.565 15.9992H135.937C136.142 15.9992 136.309 15.8326 136.309 15.6271V14.8837H143.751V15.6279C143.751 15.8334 143.917 16 144.123 16H144.495C144.701 16 144.867 15.8334 144.867 15.6279V14.8837C144.867 14.8733 144.862 14.8644 144.861 14.8543C145.778 14.6795 145.983 13.6796 145.983 12.8261V11.3302C145.983 10.5585 146.653 10.2903 147.014 10.1459C147.06 10.1273 147.104 10.1086 147.144 10.0919C147.521 9.92631 147.814 9.41879 147.814 8.93841C147.814 8.55294 147.351 7.81396 146.719 7.81396Z" fill="white"/>
<path d="M47.511 8.50308C47.511 8.50604 47.511 8.50866 47.511 8.51127C47.7915 9.00599 47.9383 9.56525 47.937 10.134V10.762C49.1348 10.2936 50.5357 10.0465 51.9999 10.0465C53.9411 10.0465 55.3666 10.4696 56.1171 10.7602L56.1223 10.1336C56.1223 9.45673 56.2819 8.85135 56.5614 8.36054L57.1939 4.19309C57.3573 3.12408 57.0749 2.10157 56.3976 1.31348C55.6795 0.479267 54.5919 0 53.4138 0H50.6462C49.4659 0 48.3764 0.479267 47.6609 1.31459C46.9845 2.10307 46.7017 3.12558 46.865 4.19386L47.511 8.50308Z" fill="white"/>
<path d="M58.7185 7.81396C57.5029 7.81396 56.867 8.98121 56.867 10.1336V10.8242C56.867 11.0813 56.7465 11.3224 56.5515 11.4523C56.383 11.5656 56.1688 11.5861 55.9818 11.507C55.3306 11.2394 53.9487 10.7907 52.0004 10.7907C50.5742 10.7907 49.2179 11.0385 48.0782 11.507C47.8912 11.5864 47.6768 11.566 47.5082 11.4526C47.3136 11.3224 47.1927 11.0805 47.1927 10.8246V10.1336C47.1927 8.83128 46.2996 7.81396 45.1581 7.81396C44.5296 7.81396 44.1865 8.55814 44.1865 8.93767C44.1865 9.39908 44.5106 9.91703 44.9091 10.0912C44.9497 10.109 44.9944 10.1284 45.042 10.1455C45.4037 10.2899 46.0764 10.5581 46.0764 11.3291V12.8249C46.0764 13.3831 46.1966 14.611 47.2009 14.8421C47.1973 14.8555 47.1946 14.8692 47.1927 14.883V15.6271C47.1927 15.8326 47.3593 15.9992 47.5648 15.9992H47.9369C48.1424 15.9992 48.309 15.8326 48.309 15.6271V14.8837H55.7508V15.6279C55.7508 15.8334 55.9174 16 56.1229 16H56.495C56.7005 16 56.8671 15.8334 56.8671 15.6279V14.8837C56.8671 14.8733 56.8619 14.8644 56.8612 14.8543C57.7776 14.6795 57.9834 13.6796 57.9834 12.8261V11.3302C57.9834 10.5585 58.6532 10.2903 59.0137 10.1459C59.0602 10.1273 59.1042 10.1086 59.1443 10.0919C59.5205 9.92631 59.8141 9.41879 59.8141 8.93841C59.8144 8.55294 59.3515 7.81396 58.7185 7.81396Z" fill="white"/>
<path d="M25.511 8.50308C25.511 8.50604 25.511 8.50866 25.511 8.51127C25.7915 9.00599 25.9383 9.56525 25.937 10.134V10.762C27.1348 10.2936 28.5357 10.0465 29.9999 10.0465C31.9411 10.0465 33.3666 10.4696 34.1171 10.7602L34.1223 10.1336C34.1223 9.45673 34.2819 8.85135 34.5614 8.36054L35.1939 4.19309C35.3573 3.12408 35.0749 2.10157 34.3976 1.31348C33.6795 0.479267 32.5919 0 31.4138 0H28.6462C27.4659 0 26.3764 0.479267 25.6609 1.31459C24.9845 2.10307 24.7017 3.12558 24.865 4.19386L25.511 8.50308Z" fill="white"/>
<path d="M36.7185 7.81396C35.5029 7.81396 34.867 8.98121 34.867 10.1336V10.8242C34.867 11.0813 34.7465 11.3224 34.5515 11.4523C34.383 11.5656 34.1688 11.5861 33.9818 11.507C33.3306 11.2394 31.9487 10.7907 30.0004 10.7907C28.5742 10.7907 27.2179 11.0385 26.0782 11.507C25.8912 11.5864 25.6768 11.566 25.5082 11.4526C25.3136 11.3224 25.1927 11.0805 25.1927 10.8246V10.1336C25.1927 8.83128 24.2996 7.81396 23.1581 7.81396C22.5296 7.81396 22.1865 8.55814 22.1865 8.93767C22.1865 9.39908 22.5106 9.91703 22.9091 10.0912C22.9497 10.109 22.9944 10.1284 23.042 10.1455C23.4037 10.2899 24.0764 10.5581 24.0764 11.3291V12.8249C24.0764 13.3831 24.1966 14.611 25.2009 14.8421C25.1973 14.8555 25.1946 14.8692 25.1927 14.883V15.6271C25.1927 15.8326 25.3593 15.9992 25.5648 15.9992H25.9369C26.1424 15.9992 26.309 15.8326 26.309 15.6271V14.8837H33.7508V15.6279C33.7508 15.8334 33.9174 16 34.1229 16H34.495C34.7005 16 34.8671 15.8334 34.8671 15.6279V14.8837C34.8671 14.8733 34.8619 14.8644 34.8612 14.8543C35.7776 14.6795 35.9834 13.6796 35.9834 12.8261V11.3302C35.9834 10.5585 36.6532 10.2903 37.0137 10.1459C37.0602 10.1273 37.1042 10.1086 37.1443 10.0919C37.5205 9.92631 37.8141 9.41879 37.8141 8.93841C37.8144 8.55294 37.3515 7.81396 36.7185 7.81396Z" fill="white"/>
<path d="M3.51095 8.50308C3.51095 8.50604 3.51095 8.50866 3.51095 8.51127C3.79149 9.00599 3.93831 9.56525 3.93699 10.134V10.762C5.13475 10.2936 6.53568 10.0465 7.99989 10.0465C9.9411 10.0465 11.3666 10.4696 12.1171 10.7602L12.1223 10.1336C12.1223 9.45673 12.2819 8.85135 12.5614 8.36054L13.1939 4.19309C13.3573 3.12408 13.0749 2.10157 12.3976 1.31348C11.6795 0.479267 10.5919 0 9.41383 0H6.6462C5.46591 0 4.37642 0.479267 3.66088 1.31459C2.98445 2.10307 2.70165 3.12558 2.86501 4.19386L3.51095 8.50308Z" fill="white"/>
<path d="M14.7185 7.81396C13.5029 7.81396 12.867 8.98121 12.867 10.1336V10.8242C12.867 11.0813 12.7465 11.3224 12.5515 11.4523C12.383 11.5656 12.1688 11.5861 11.9818 11.507C11.3306 11.2394 9.94869 10.7907 8.00044 10.7907C6.57422 10.7907 5.21794 11.0385 4.07822 11.507C3.89124 11.5864 3.67678 11.566 3.50818 11.4526C3.31357 11.3224 3.19266 11.0805 3.19266 10.8246V10.1336C3.19266 8.83128 2.29964 7.81396 1.15807 7.81396C0.529605 7.81396 0.186523 8.55814 0.186523 8.93767C0.186523 9.39908 0.510628 9.91703 0.909139 10.0912C0.949709 10.109 0.99436 10.1284 1.04198 10.1455C1.40365 10.2899 2.07638 10.5581 2.07638 11.3291V12.8249C2.07638 13.3831 2.19656 14.611 3.20086 14.8421C3.19734 14.8555 3.19458 14.8692 3.19266 14.883V15.6271C3.19266 15.8326 3.35927 15.9992 3.56477 15.9992H3.93687C4.14237 15.9992 4.30897 15.8326 4.30897 15.6271V14.8837H11.7508V15.6279C11.7508 15.8334 11.9174 16 12.1229 16H12.495C12.7005 16 12.8671 15.8334 12.8671 15.6279V14.8837C12.8671 14.8733 12.8619 14.8644 12.8612 14.8543C13.7776 14.6795 13.9834 13.6796 13.9834 12.8261V11.3302C13.9834 10.5585 14.6532 10.2903 15.0137 10.1459C15.0602 10.1273 15.1042 10.1086 15.1443 10.0919C15.5205 9.92631 15.8141 9.41879 15.8141 8.93841C15.8144 8.55294 15.3515 7.81396 14.7185 7.81396Z" fill="white"/>
</svg>
