<svg width="33" height="33" viewBox="0 0 33 33" fill="none" xmlns="http://www.w3.org/2000/svg">
<path opacity="0.4" d="M16.7129 3.28219C24.0026 3.28219 29.9308 9.21171 29.9308 16.5C29.9308 23.7883 24.0026 29.7178 16.7129 29.7178C9.42463 29.7178 3.49512 23.7883 3.49512 16.5C3.49512 9.21171 9.42463 3.28219 16.7129 3.28219" fill="white"/>
<path d="M14.8064 10.9211C15.0589 10.9211 15.3127 11.0176 15.5057 11.2106L20.1147 15.7972C20.3011 15.9836 20.4055 16.236 20.4055 16.5004C20.4055 16.7634 20.3011 17.0159 20.1147 17.2023L15.5057 21.7915C15.1184 22.1774 14.4918 22.1774 14.1046 21.7888C13.7186 21.4002 13.7199 20.7724 14.1072 20.3864L18.0104 16.5004L14.1072 12.6144C13.7199 12.2284 13.7186 11.6019 14.1046 11.2133C14.2975 11.0176 14.5526 10.9211 14.8064 10.9211" fill="white"/>
</svg>
