<svg width="1677" height="919" viewBox="0 0 1677 919" fill="none" xmlns="http://www.w3.org/2000/svg">
<path fill-rule="evenodd" clip-rule="evenodd" d="M253.374 30C253.374 13.4315 266.805 0 283.374 0H1647C1663.57 0 1677 13.4314 1677 30V889C1677 905.569 1663.57 919 1647 919H283.374C266.805 919 253.374 905.568 253.374 889V326C253.374 309.431 239.942 296 223.374 296H30C13.4315 296 0 282.568 0 266V263C0 246.431 13.4315 233 30 233H223.374C239.942 233 253.374 219.568 253.374 203V30Z" fill="#19191B"/>
</svg>
