<svg width="111" height="47" viewBox="0 0 111 47" fill="none" xmlns="http://www.w3.org/2000/svg">
<path d="M9.88018 13.1603H4.06018L3.06018 16.0003H0.680176L5.66018 2.08034H8.30018L13.2802 16.0003H10.8802L9.88018 13.1603ZM9.24018 11.3003L6.98018 4.84034L4.70018 11.3003H9.24018ZM14.6855 10.4403C14.6855 9.33368 14.9122 8.35368 15.3655 7.50034C15.8322 6.64701 16.4588 5.98701 17.2455 5.52034C18.0455 5.04034 18.9322 4.80034 19.9055 4.80034C20.6255 4.80034 21.3322 4.96034 22.0255 5.28034C22.7322 5.58701 23.2922 6.00034 23.7055 6.52034V1.20034H26.0055V16.0003H23.7055V14.3403C23.3322 14.8737 22.8122 15.3137 22.1455 15.6603C21.4922 16.007 20.7388 16.1803 19.8855 16.1803C18.9255 16.1803 18.0455 15.9403 17.2455 15.4603C16.4588 14.967 15.8322 14.287 15.3655 13.4203C14.9122 12.5403 14.6855 11.547 14.6855 10.4403ZM23.7055 10.4803C23.7055 9.72034 23.5455 9.06034 23.2255 8.50034C22.9188 7.94034 22.5122 7.51368 22.0055 7.22034C21.4988 6.92701 20.9522 6.78034 20.3655 6.78034C19.7788 6.78034 19.2322 6.92701 18.7255 7.22034C18.2188 7.50034 17.8055 7.92034 17.4855 8.48034C17.1788 9.02701 17.0255 9.68034 17.0255 10.4403C17.0255 11.2003 17.1788 11.867 17.4855 12.4403C17.8055 13.0137 18.2188 13.4537 18.7255 13.7603C19.2455 14.0537 19.7922 14.2003 20.3655 14.2003C20.9522 14.2003 21.4988 14.0537 22.0055 13.7603C22.5122 13.467 22.9188 13.0403 23.2255 12.4803C23.5455 11.907 23.7055 11.2403 23.7055 10.4803ZM42.3402 4.80034C43.2068 4.80034 43.9802 4.98034 44.6602 5.34034C45.3535 5.70034 45.8935 6.23368 46.2802 6.94034C46.6802 7.64701 46.8802 8.50034 46.8802 9.50034V16.0003H44.6202V9.84034C44.6202 8.85368 44.3735 8.10034 43.8802 7.58034C43.3868 7.04701 42.7135 6.78034 41.8602 6.78034C41.0068 6.78034 40.3268 7.04701 39.8202 7.58034C39.3268 8.10034 39.0802 8.85368 39.0802 9.84034V16.0003H36.8202V9.84034C36.8202 8.85368 36.5735 8.10034 36.0802 7.58034C35.5868 7.04701 34.9135 6.78034 34.0602 6.78034C33.2068 6.78034 32.5268 7.04701 32.0202 7.58034C31.5268 8.10034 31.2802 8.85368 31.2802 9.84034V16.0003H29.0002V4.98034H31.2802V6.24034C31.6535 5.78701 32.1268 5.43368 32.7002 5.18034C33.2735 4.92701 33.8868 4.80034 34.5402 4.80034C35.4202 4.80034 36.2068 4.98701 36.9002 5.36034C37.5935 5.73368 38.1268 6.27368 38.5002 6.98034C38.8335 6.31367 39.3535 5.78701 40.0602 5.40034C40.7668 5.00034 41.5268 4.80034 42.3402 4.80034ZM50.9414 3.52034C50.5281 3.52034 50.1814 3.38034 49.9014 3.10034C49.6214 2.82034 49.4814 2.47368 49.4814 2.06034C49.4814 1.64701 49.6214 1.30034 49.9014 1.02034C50.1814 0.740342 50.5281 0.600342 50.9414 0.600342C51.3414 0.600342 51.6814 0.740342 51.9614 1.02034C52.2414 1.30034 52.3814 1.64701 52.3814 2.06034C52.3814 2.47368 52.2414 2.82034 51.9614 3.10034C51.6814 3.38034 51.3414 3.52034 50.9414 3.52034ZM52.0614 4.98034V16.0003H49.7814V4.98034H52.0614ZM60.6149 4.80034C61.4815 4.80034 62.2549 4.98034 62.9349 5.34034C63.6282 5.70034 64.1682 6.23368 64.5549 6.94034C64.9415 7.64701 65.1349 8.50034 65.1349 9.50034V16.0003H62.8749V9.84034C62.8749 8.85368 62.6282 8.10034 62.1349 7.58034C61.6415 7.04701 60.9682 6.78034 60.1149 6.78034C59.2615 6.78034 58.5815 7.04701 58.0749 7.58034C57.5815 8.10034 57.3349 8.85368 57.3349 9.84034V16.0003H55.0549V4.98034H57.3349V6.24034C57.7082 5.78701 58.1815 5.43368 58.7549 5.18034C59.3415 4.92701 59.9615 4.80034 60.6149 4.80034ZM0.740176 40.4403C0.740176 39.3337 0.966842 38.3537 1.42018 37.5003C1.88684 36.647 2.51351 35.987 3.30018 35.5203C4.10018 35.0403 4.98684 34.8003 5.96018 34.8003C6.68018 34.8003 7.38684 34.9603 8.08018 35.2803C8.78684 35.587 9.34684 36.0003 9.76018 36.5203V31.2003H12.0602V46.0003H9.76018V44.3403C9.38684 44.8737 8.86684 45.3137 8.20018 45.6603C7.54684 46.007 6.79351 46.1803 5.94018 46.1803C4.98018 46.1803 4.10018 45.9403 3.30018 45.4603C2.51351 44.967 1.88684 44.287 1.42018 43.4203C0.966842 42.5403 0.740176 41.547 0.740176 40.4403ZM9.76018 40.4803C9.76018 39.7203 9.60018 39.0603 9.28018 38.5003C8.97351 37.9403 8.56684 37.5137 8.06018 37.2203C7.55351 36.927 7.00684 36.7803 6.42018 36.7803C5.83351 36.7803 5.28684 36.927 4.78018 37.2203C4.27351 37.5003 3.86018 37.9203 3.54018 38.4803C3.23351 39.027 3.08018 39.6803 3.08018 40.4403C3.08018 41.2003 3.23351 41.867 3.54018 42.4403C3.86018 43.0137 4.27351 43.4537 4.78018 43.7603C5.30018 44.0537 5.84684 44.2003 6.42018 44.2003C7.00684 44.2003 7.55351 44.0537 8.06018 43.7603C8.56684 43.467 8.97351 43.0403 9.28018 42.4803C9.60018 41.907 9.76018 41.2403 9.76018 40.4803ZM14.2949 40.4403C14.2949 39.3337 14.5215 38.3537 14.9749 37.5003C15.4415 36.647 16.0682 35.987 16.8549 35.5203C17.6549 35.0403 18.5349 34.8003 19.4949 34.8003C20.3615 34.8003 21.1149 34.9737 21.7549 35.3203C22.4082 35.6537 22.9282 36.0737 23.3149 36.5803V34.9803H25.6149V46.0003H23.3149V44.3603C22.9282 44.8803 22.4015 45.3137 21.7349 45.6603C21.0682 46.007 20.3082 46.1803 19.4549 46.1803C18.5082 46.1803 17.6415 45.9403 16.8549 45.4603C16.0682 44.967 15.4415 44.287 14.9749 43.4203C14.5215 42.5403 14.2949 41.547 14.2949 40.4403ZM23.3149 40.4803C23.3149 39.7203 23.1549 39.0603 22.8349 38.5003C22.5282 37.9403 22.1215 37.5137 21.6149 37.2203C21.1082 36.927 20.5615 36.7803 19.9749 36.7803C19.3882 36.7803 18.8415 36.927 18.3349 37.2203C17.8282 37.5003 17.4149 37.9203 17.0949 38.4803C16.7882 39.027 16.6349 39.6803 16.6349 40.4403C16.6349 41.2003 16.7882 41.867 17.0949 42.4403C17.4149 43.0137 17.8282 43.4537 18.3349 43.7603C18.8549 44.0537 19.4015 44.2003 19.9749 44.2003C20.5615 44.2003 21.1082 44.0537 21.6149 43.7603C22.1215 43.467 22.5282 43.0403 22.8349 42.4803C23.1549 41.907 23.3149 41.2403 23.3149 40.4803ZM32.6096 46.1803C31.7429 46.1803 30.9629 46.027 30.2696 45.7203C29.5896 45.4003 29.0496 44.9737 28.6496 44.4403C28.2496 43.8937 28.0362 43.287 28.0096 42.6203H30.3696C30.4096 43.087 30.6296 43.4803 31.0296 43.8003C31.4429 44.107 31.9562 44.2603 32.5696 44.2603C33.2096 44.2603 33.7029 44.1403 34.0496 43.9003C34.4096 43.647 34.5896 43.327 34.5896 42.9403C34.5896 42.527 34.3896 42.2203 33.9896 42.0203C33.6029 41.8203 32.9829 41.6003 32.1296 41.3603C31.3029 41.1337 30.6296 40.9137 30.1096 40.7003C29.5896 40.487 29.1362 40.1603 28.7496 39.7203C28.3762 39.2803 28.1896 38.7003 28.1896 37.9803C28.1896 37.3937 28.3629 36.8603 28.7096 36.3803C29.0562 35.887 29.5496 35.5003 30.1896 35.2203C30.8429 34.9403 31.5896 34.8003 32.4296 34.8003C33.6829 34.8003 34.6896 35.1203 35.4496 35.7603C36.2229 36.387 36.6362 37.247 36.6896 38.3403H34.4096C34.3696 37.847 34.1696 37.4537 33.8096 37.1603C33.4496 36.867 32.9629 36.7203 32.3496 36.7203C31.7496 36.7203 31.2896 36.8337 30.9696 37.0603C30.6496 37.287 30.4896 37.587 30.4896 37.9603C30.4896 38.2537 30.5962 38.5003 30.8096 38.7003C31.0229 38.9003 31.2829 39.0603 31.5896 39.1803C31.8962 39.287 32.3496 39.427 32.9496 39.6003C33.7496 39.8137 34.4029 40.0337 34.9096 40.2603C35.4296 40.4737 35.8762 40.7937 36.2496 41.2203C36.6229 41.647 36.8162 42.2137 36.8296 42.9203C36.8296 43.547 36.6562 44.107 36.3096 44.6003C35.9629 45.0937 35.4696 45.4803 34.8296 45.7603C34.2029 46.0403 33.4629 46.1803 32.6096 46.1803ZM44.9931 34.8003C45.8331 34.8003 46.5798 34.9803 47.2331 35.3403C47.8998 35.7003 48.4198 36.2337 48.7931 36.9403C49.1798 37.647 49.3731 38.5003 49.3731 39.5003V46.0003H47.1131V39.8403C47.1131 38.8537 46.8665 38.1003 46.3731 37.5803C45.8798 37.047 45.2065 36.7803 44.3531 36.7803C43.4998 36.7803 42.8198 37.047 42.3131 37.5803C41.8198 38.1003 41.5731 38.8537 41.5731 39.8403V46.0003H39.2931V31.2003H41.5731V36.2603C41.9598 35.7937 42.4465 35.4337 43.0331 35.1803C43.6331 34.927 44.2865 34.8003 44.9931 34.8003ZM54.5614 36.6203C54.9481 36.087 55.4748 35.6537 56.1414 35.3203C56.8214 34.9737 57.5748 34.8003 58.4014 34.8003C59.3748 34.8003 60.2548 35.0337 61.0414 35.5003C61.8281 35.967 62.4481 36.6337 62.9014 37.5003C63.3548 38.3537 63.5814 39.3337 63.5814 40.4403C63.5814 41.547 63.3548 42.5403 62.9014 43.4203C62.4481 44.287 61.8214 44.967 61.0214 45.4603C60.2348 45.9403 59.3614 46.1803 58.4014 46.1803C57.5481 46.1803 56.7881 46.0137 56.1214 45.6803C55.4681 45.347 54.9481 44.9203 54.5614 44.4003V46.0003H52.2814V31.2003H54.5614V36.6203ZM61.2614 40.4403C61.2614 39.6803 61.1014 39.027 60.7814 38.4803C60.4748 37.9203 60.0614 37.5003 59.5414 37.2203C59.0348 36.927 58.4881 36.7803 57.9014 36.7803C57.3281 36.7803 56.7814 36.927 56.2614 37.2203C55.7548 37.5137 55.3414 37.9403 55.0214 38.5003C54.7148 39.0603 54.5614 39.7203 54.5614 40.4803C54.5614 41.2403 54.7148 41.907 55.0214 42.4803C55.3414 43.0403 55.7548 43.467 56.2614 43.7603C56.7814 44.0537 57.3281 44.2003 57.9014 44.2003C58.4881 44.2003 59.0348 44.0537 59.5414 43.7603C60.0614 43.4537 60.4748 43.0137 60.7814 42.4403C61.1014 41.867 61.2614 41.2003 61.2614 40.4403ZM70.6161 46.1803C69.5761 46.1803 68.6361 45.947 67.7961 45.4803C66.9561 45.0003 66.2961 44.3337 65.8161 43.4803C65.3361 42.6137 65.0961 41.6137 65.0961 40.4803C65.0961 39.3603 65.3428 38.367 65.8361 37.5003C66.3294 36.6337 67.0028 35.967 67.8561 35.5003C68.7094 35.0337 69.6628 34.8003 70.7161 34.8003C71.7694 34.8003 72.7228 35.0337 73.5761 35.5003C74.4294 35.967 75.1028 36.6337 75.5961 37.5003C76.0894 38.367 76.3361 39.3603 76.3361 40.4803C76.3361 41.6003 76.0828 42.5937 75.5761 43.4603C75.0694 44.327 74.3761 45.0003 73.4961 45.4803C72.6294 45.947 71.6694 46.1803 70.6161 46.1803ZM70.6161 44.2003C71.2028 44.2003 71.7494 44.0603 72.2561 43.7803C72.7761 43.5003 73.1961 43.0803 73.5161 42.5203C73.8361 41.9603 73.9961 41.2803 73.9961 40.4803C73.9961 39.6803 73.8428 39.007 73.5361 38.4603C73.2294 37.9003 72.8228 37.4803 72.3161 37.2003C71.8094 36.9203 71.2628 36.7803 70.6761 36.7803C70.0894 36.7803 69.5428 36.9203 69.0361 37.2003C68.5428 37.4803 68.1494 37.9003 67.8561 38.4603C67.5628 39.007 67.4161 39.6803 67.4161 40.4803C67.4161 41.667 67.7161 42.587 68.3161 43.2403C68.9294 43.8803 69.6961 44.2003 70.6161 44.2003ZM77.83 40.4403C77.83 39.3337 78.0567 38.3537 78.51 37.5003C78.9767 36.647 79.6034 35.987 80.39 35.5203C81.19 35.0403 82.07 34.8003 83.03 34.8003C83.8967 34.8003 84.65 34.9737 85.29 35.3203C85.9434 35.6537 86.4634 36.0737 86.85 36.5803V34.9803H89.15V46.0003H86.85V44.3603C86.4634 44.8803 85.9367 45.3137 85.27 45.6603C84.6034 46.007 83.8434 46.1803 82.99 46.1803C82.0434 46.1803 81.1767 45.9403 80.39 45.4603C79.6034 44.967 78.9767 44.287 78.51 43.4203C78.0567 42.5403 77.83 41.547 77.83 40.4403ZM86.85 40.4803C86.85 39.7203 86.69 39.0603 86.37 38.5003C86.0634 37.9403 85.6567 37.5137 85.15 37.2203C84.6434 36.927 84.0967 36.7803 83.51 36.7803C82.9234 36.7803 82.3767 36.927 81.87 37.2203C81.3634 37.5003 80.95 37.9203 80.63 38.4803C80.3234 39.027 80.17 39.6803 80.17 40.4403C80.17 41.2003 80.3234 41.867 80.63 42.4403C80.95 43.0137 81.3634 43.4537 81.87 43.7603C82.39 44.0537 82.9367 44.2003 83.51 44.2003C84.0967 44.2003 84.6434 44.0537 85.15 43.7603C85.6567 43.467 86.0634 43.0403 86.37 42.4803C86.69 41.907 86.85 41.2403 86.85 40.4803ZM94.4247 36.5803C94.758 36.0203 95.198 35.587 95.7447 35.2803C96.3047 34.9603 96.9647 34.8003 97.7247 34.8003V37.1603H97.1447C96.2514 37.1603 95.5714 37.387 95.1047 37.8403C94.6514 38.2937 94.4247 39.0803 94.4247 40.2003V46.0003H92.1447V34.9803H94.4247V36.5803ZM99.0605 40.4403C99.0605 39.3337 99.2872 38.3537 99.7405 37.5003C100.207 36.647 100.834 35.987 101.62 35.5203C102.42 35.0403 103.307 34.8003 104.28 34.8003C105 34.8003 105.707 34.9603 106.4 35.2803C107.107 35.587 107.667 36.0003 108.08 36.5203V31.2003H110.38V46.0003H108.08V44.3403C107.707 44.8737 107.187 45.3137 106.52 45.6603C105.867 46.007 105.114 46.1803 104.26 46.1803C103.3 46.1803 102.42 45.9403 101.62 45.4603C100.834 44.967 100.207 44.287 99.7405 43.4203C99.2872 42.5403 99.0605 41.547 99.0605 40.4403ZM108.08 40.4803C108.08 39.7203 107.92 39.0603 107.6 38.5003C107.294 37.9403 106.887 37.5137 106.38 37.2203C105.874 36.927 105.327 36.7803 104.74 36.7803C104.154 36.7803 103.607 36.927 103.1 37.2203C102.594 37.5003 102.18 37.9203 101.86 38.4803C101.554 39.027 101.4 39.6803 101.4 40.4403C101.4 41.2003 101.554 41.867 101.86 42.4403C102.18 43.0137 102.594 43.4537 103.1 43.7603C103.62 44.0537 104.167 44.2003 104.74 44.2003C105.327 44.2003 105.874 44.0537 106.38 43.7603C106.887 43.467 107.294 43.0403 107.6 42.4803C107.92 41.907 108.08 41.2403 108.08 40.4803Z" fill="#36CC60"/>
</svg>
