<svg width="1701" height="923" viewBox="0 0 1701 923" fill="none" xmlns="http://www.w3.org/2000/svg">
<path fill-rule="evenodd" clip-rule="evenodd" d="M257 30C257 13.4315 270.431 0 287 0H1671C1687.57 0 1701 13.4315 1701 30V893C1701 909.569 1687.57 923 1671 923H287C270.431 923 257 909.569 257 893V463.751C257 447.183 243.569 433.751 227 433.751H30C13.4315 433.751 0 420.32 0 403.751V400.202C0 383.633 13.4315 370.202 30 370.202H227C243.569 370.202 257 356.77 257 340.202V30Z" fill="#19191B"/>
</svg>
