<svg width="112" height="30" viewBox="0 0 112 30" fill="none" xmlns="http://www.w3.org/2000/svg">
<path fill-rule="evenodd" clip-rule="evenodd" d="M8.5 7.22222C8.5 4.37878 10.9208 2 14 2C17.0792 2 19.5 4.37878 19.5 7.22222C19.5 10.0657 17.0792 12.4444 14 12.4444C10.9208 12.4444 8.5 10.0657 8.5 7.22222ZM14 0C9.89947 0 6.5 3.19279 6.5 7.22222C6.5 11.2517 9.89947 14.4444 14 14.4444C18.1005 14.4444 21.5 11.2517 21.5 7.22222C21.5 3.19279 18.1005 0 14 0ZM61.22 15.24C61.22 15.9467 61.0533 16.6133 60.72 17.24C60.3867 17.8667 59.8533 18.38 59.12 18.78C58.3867 19.1667 57.4467 19.36 56.3 19.36H53.78V25H51.5V11.1H56.3C57.3667 11.1 58.2667 11.2867 59 11.66C59.7467 12.02 60.3 12.5133 60.66 13.14C61.0333 13.7667 61.22 14.4667 61.22 15.24ZM56.3 17.5C57.1667 17.5 57.8133 17.3067 58.24 16.92C58.6667 16.52 58.88 15.96 58.88 15.24C58.88 13.72 58.02 12.96 56.3 12.96H53.78V17.5H56.3ZM65.6745 15.58C66.0079 15.02 66.4479 14.5867 66.9945 14.28C67.5545 13.96 68.2145 13.8 68.9745 13.8V16.16H68.3945C67.5012 16.16 66.8212 16.3867 66.3545 16.84C65.9012 17.2933 65.6745 18.08 65.6745 19.2V25H63.3945V13.98H65.6745V15.58ZM75.8503 25.18C74.8103 25.18 73.8703 24.9467 73.0303 24.48C72.1903 24 71.5303 23.3333 71.0503 22.48C70.5703 21.6133 70.3303 20.6133 70.3303 19.48C70.3303 18.36 70.577 17.3667 71.0703 16.5C71.5636 15.6333 72.237 14.9667 73.0903 14.5C73.9436 14.0333 74.897 13.8 75.9503 13.8C77.0036 13.8 77.957 14.0333 78.8103 14.5C79.6636 14.9667 80.337 15.6333 80.8303 16.5C81.3236 17.3667 81.5703 18.36 81.5703 19.48C81.5703 20.6 81.317 21.5933 80.8103 22.46C80.3036 23.3267 79.6103 24 78.7303 24.48C77.8636 24.9467 76.9036 25.18 75.8503 25.18ZM75.8503 23.2C76.437 23.2 76.9836 23.06 77.4903 22.78C78.0103 22.5 78.4303 22.08 78.7503 21.52C79.0703 20.96 79.2303 20.28 79.2303 19.48C79.2303 18.68 79.077 18.0067 78.7703 17.46C78.4636 16.9 78.057 16.48 77.5503 16.2C77.0436 15.92 76.497 15.78 75.9103 15.78C75.3236 15.78 74.777 15.92 74.2703 16.2C73.777 16.48 73.3836 16.9 73.0903 17.46C72.797 18.0067 72.6503 18.68 72.6503 19.48C72.6503 20.6667 72.9503 21.5867 73.5503 22.24C74.1636 22.88 74.9303 23.2 75.8503 23.2ZM88.4442 15.84H86.4042V25H84.1042V15.84H82.8042V13.98H84.1042V13.2C84.1042 11.9333 84.4376 11.0133 85.1042 10.44C85.7842 9.85333 86.8442 9.56 88.2842 9.56V11.46C87.5909 11.46 87.1042 11.5933 86.8242 11.86C86.5442 12.1133 86.4042 12.56 86.4042 13.2V13.98H88.4442V15.84ZM91.6248 12.52C91.2115 12.52 90.8648 12.38 90.5848 12.1C90.3048 11.82 90.1648 11.4733 90.1648 11.06C90.1648 10.6467 90.3048 10.3 90.5848 10.02C90.8648 9.74 91.2115 9.6 91.6248 9.6C92.0248 9.6 92.3648 9.74 92.6448 10.02C92.9248 10.3 93.0648 10.6467 93.0648 11.06C93.0648 11.4733 92.9248 11.82 92.6448 12.1C92.3648 12.38 92.0248 12.52 91.6248 12.52ZM92.7448 13.98V25H90.4648V13.98H92.7448ZM98.0183 10.2V25H95.7383V10.2H98.0183ZM111.112 19.22C111.112 19.6333 111.085 20.0067 111.032 20.34H102.612C102.678 21.22 103.005 21.9267 103.592 22.46C104.178 22.9933 104.898 23.26 105.752 23.26C106.978 23.26 107.845 22.7467 108.352 21.72H110.812C110.478 22.7333 109.872 23.5667 108.992 24.22C108.125 24.86 107.045 25.18 105.752 25.18C104.698 25.18 103.752 24.9467 102.912 24.48C102.085 24 101.432 23.3333 100.952 22.48C100.485 21.6133 100.252 20.6133 100.252 19.48C100.252 18.3467 100.478 17.3533 100.932 16.5C101.398 15.6333 102.045 14.9667 102.872 14.5C103.712 14.0333 104.672 13.8 105.752 13.8C106.792 13.8 107.718 14.0267 108.532 14.48C109.345 14.9333 109.978 15.5733 110.432 16.4C110.885 17.2133 111.112 18.1533 111.112 19.22ZM108.732 18.5C108.718 17.66 108.418 16.9867 107.832 16.48C107.245 15.9733 106.518 15.72 105.652 15.72C104.865 15.72 104.192 15.9733 103.632 16.48C103.072 16.9733 102.738 17.6467 102.632 18.5H108.732ZM2.2123 20.7671C3.62184 19.4178 5.52463 18.6671 7.5 18.6671H20.5C22.4754 18.6671 24.3782 19.4178 25.7877 20.7671C27.1987 22.1179 28 23.9594 28 25.8893V29.0004C28 29.5527 27.5523 30.0004 27 30.0004C26.4477 30.0004 26 29.5527 26 29.0004V25.8893C26 24.5187 25.4316 23.1949 24.4047 22.2119C23.3763 21.2274 21.9724 20.6671 20.5 20.6671H7.5C6.02756 20.6671 4.62374 21.2274 3.59531 22.2119C2.56836 23.1949 2 24.5187 2 25.8893V29.0004C2 29.5527 1.55228 30.0004 1 30.0004C0.447715 30.0004 0 29.5527 0 29.0004V25.8893C0 23.9594 0.801278 22.1179 2.2123 20.7671Z" fill="white"/>
</svg>
