<svg width="112" height="30" viewBox="0 0 112 30" fill="none" xmlns="http://www.w3.org/2000/svg">
<path fill-rule="evenodd" clip-rule="evenodd" d="M8.5 7.22222C8.5 4.37878 10.9208 2 14 2C17.0792 2 19.5 4.37878 19.5 7.22222C19.5 10.0657 17.0792 12.4444 14 12.4444C10.9208 12.4444 8.5 10.0657 8.5 7.22222ZM14 0C9.89947 0 6.5 3.19279 6.5 7.22222C6.5 11.2517 9.89947 14.4444 14 14.4444C18.1005 14.4444 21.5 11.2517 21.5 7.22222C21.5 3.19279 18.1005 0 14 0ZM53.78 17.5V12.96H56.3C58.08 12.96 58.88 13.8 58.88 15.24C58.88 16.64 58.08 17.5 56.3 17.5H53.78ZM61.22 15.24C61.22 12.98 59.6 11.1 56.3 11.1H51.5V25H53.78V19.36H56.3C59.92 19.36 61.22 17.22 61.22 15.24ZM65.6745 19.2C65.6745 16.86 66.7145 16.16 68.3945 16.16H68.9745V13.8C67.4145 13.8 66.3145 14.48 65.6745 15.58V13.98H63.3945V25H65.6745V19.2ZM81.5703 19.48C81.5703 16.02 79.0903 13.8 75.9503 13.8C72.8103 13.8 70.3303 16.02 70.3303 19.48C70.3303 22.94 72.7103 25.18 75.8503 25.18C79.0103 25.18 81.5703 22.94 81.5703 19.48ZM72.6503 19.48C72.6503 16.98 74.1903 15.78 75.9103 15.78C77.6103 15.78 79.2303 16.98 79.2303 19.48C79.2303 21.98 77.5503 23.2 75.8503 23.2C74.1303 23.2 72.6503 21.98 72.6503 19.48ZM84.1042 25H86.4042V15.84H88.4442V13.98H86.4042V13.2C86.4042 11.94 86.8842 11.46 88.2842 11.46V9.56C85.4042 9.56 84.1042 10.66 84.1042 13.2V13.98H82.8042V15.84H84.1042V25ZM90.4648 25H92.7448V13.98H90.4648V25ZM91.6248 12.52C92.4248 12.52 93.0648 11.88 93.0648 11.06C93.0648 10.24 92.4248 9.6 91.6248 9.6C90.8048 9.6 90.1648 10.24 90.1648 11.06C90.1648 11.88 90.8048 12.52 91.6248 12.52ZM95.7383 25H98.0183V10.2H95.7383V25ZM105.652 15.72C107.352 15.72 108.692 16.8 108.732 18.5H102.632C102.872 16.76 104.112 15.72 105.652 15.72ZM110.812 21.72H108.352C107.932 22.58 107.152 23.26 105.752 23.26C104.072 23.26 102.772 22.16 102.612 20.34H111.032C111.092 19.96 111.112 19.6 111.112 19.22C111.112 15.98 108.892 13.8 105.752 13.8C102.492 13.8 100.252 16.02 100.252 19.48C100.252 22.94 102.592 25.18 105.752 25.18C108.452 25.18 110.192 23.64 110.812 21.72ZM2.2123 20.7671C3.62184 19.4178 5.52463 18.6671 7.5 18.6671H20.5C22.4754 18.6671 24.3782 19.4178 25.7877 20.7671C27.1987 22.1179 28 23.9594 28 25.8893V29.0004C28 29.5527 27.5523 30.0004 27 30.0004C26.4477 30.0004 26 29.5527 26 29.0004V25.8893C26 24.5187 25.4316 23.1949 24.4047 22.2119C23.3763 21.2274 21.9724 20.6671 20.5 20.6671H7.5C6.02756 20.6671 4.62374 21.2274 3.59531 22.2119C2.56836 23.1949 2 24.5187 2 25.8893V29.0004C2 29.5527 1.55228 30.0004 1 30.0004C0.447715 30.0004 0 29.5527 0 29.0004V25.8893C0 23.9594 0.801278 22.1179 2.2123 20.7671Z" fill="#36CC60"/>
</svg>
