<svg width="1701" height="919" viewBox="0 0 1701 919" fill="none" xmlns="http://www.w3.org/2000/svg">
<path fill-rule="evenodd" clip-rule="evenodd" d="M256.142 30C256.142 13.4315 269.573 0 286.142 0H1671C1687.57 0 1701 13.4314 1701 30V889C1701 905.569 1687.57 919 1671 919H286.142C269.573 919 256.142 905.568 256.142 889V403.734C256.142 387.165 242.71 373.734 226.142 373.734H30C13.4315 373.734 0 360.302 0 343.734V342.141C0 325.573 13.4315 312.141 30 312.141H226.142C242.71 312.141 256.142 298.71 256.142 282.141V30Z" fill="#19191B"/>
</svg>
